<svg width="80" height="80" viewBox="0 0 160 160" fill="none" xmlns="http://www.w3.org/2000/svg">
<path d="M23.4465 98.6507C24.3885 96.437 26.5617 95 28.9675 95H131.033C133.438 95 135.611 96.437 136.553 98.6507L151.447 133.651C153.131 137.608 150.227 142 145.926 142H14.0738C9.77298 142 6.86888 137.608 8.55291 133.651L23.4465 98.6507Z" fill="#08194B"/>
<path d="M65.6901 58.5843C66.6482 56.4062 68.8028 55 71.1823 55H88.374C90.9734 55 93.2772 56.6738 94.0804 59.146L118.448 134.146C119.708 138.023 116.818 142 112.742 142H38.1938C33.8618 142 30.9575 137.55 32.7016 133.584L65.6901 58.5843Z" fill="#08194B"/>
<path d="M116.844 24.904C118.873 25.777 119.81 28.1298 118.937 30.1591L83.1638 113.311C82.7865 114.188 82.1078 114.901 81.2505 115.321L68.1182 121.761C67.0169 122.301 65.6936 121.731 65.3284 120.56L60.9733 106.598C60.689 105.686 60.7402 104.703 61.1175 103.826L96.891 20.6744C97.764 18.6451 100.117 17.7077 102.146 18.5808L116.844 24.904Z" fill="#3B82F6"/>
<path opacity="0.4" d="M35 123H125.5" stroke="#3B82F6" stroke-width="3" stroke-linecap="round"/>
<path d="M35 123H66" stroke="#3B82F6" stroke-width="3" stroke-linecap="round"/>
</svg>
